<?xml version="1.0" standalone="no"?>
<!DOCTYPE svg PUBLIC "-//W3C//DTD SVG 20010904//EN"
 "http://www.w3.org/TR/2001/REC-SVG-20010904/DTD/svg10.dtd">
<svg version="1.0" xmlns="http://www.w3.org/2000/svg"
 width="32.000000pt" height="32.000000pt" viewBox="0 0 32.000000 32.000000"
 preserveAspectRatio="xMidYMid meet">

<g transform="translate(0.000000,32.000000) scale(0.100000,-0.100000)"
fill="#000000" stroke="none">
<path d="M20 160 l0 -130 140 0 140 0 0 130 0 130 -140 0 -140 0 0 -130z m40
-35 c0 -25 5 -45 10 -45 6 0 10 18 10 40 0 22 5 40 10 40 6 0 10 -18 10 -40 0
-22 5 -40 10 -40 6 0 10 21 11 48 0 35 3 42 9 27 5 -11 9 -33 9 -48 1 -44 21
-21 21 24 0 32 3 39 20 39 17 0 20 -7 20 -45 0 -25 5 -45 10 -45 6 0 10 18 10
40 0 22 5 40 10 40 6 0 10 -18 10 -40 0 -22 5 -40 10 -40 6 0 10 20 10 45 0
34 4 45 15 45 13 0 15 -11 13 -62 l-3 -63 -125 0 -125 0 -3 63 c-2 51 0 62 13
62 11 0 15 -11 15 -45z"/>
</g>
</svg>
